<svg width="40" height="48" viewBox="0 0 40 48" fill="none" xmlns="http://www.w3.org/2000/svg">
<path fill-rule="evenodd" clip-rule="evenodd" d="M22.8719 10.468C21.9426 10.8373 20.9772 11.0307 19.9732 11.004C19.7826 11.0013 19.7092 10.9507 19.6986 10.7493C19.5426 8.84933 20.0519 7.11067 20.9679 5.47333C22.5332 2.67733 24.9146 0.950667 28.0092 0.192C28.274 0.125348 28.5465 0.0901898 28.8342 0.053057C28.9609 0.0367065 29.0906 0.0199732 29.2239 0C29.2287 0.127214 29.2345 0.247475 29.2401 0.363546C29.2486 0.539445 29.2567 0.705722 29.2599 0.872C29.3266 4.30133 27.1106 8.78533 22.8719 10.468ZM38.9128 35.3626C38.9621 35.2177 39.0107 35.0749 39.0599 34.936C35.3132 33.072 33.0279 30.2 32.7439 25.9547C32.4626 21.712 34.3999 18.5787 37.8026 16.2067C37.7791 16.1702 37.7452 16.1214 37.7129 16.0747L37.6999 16.056C36.3506 14.1627 34.5639 12.8627 32.3679 12.128C30.8186 11.6093 29.2266 11.3973 27.5946 11.5293C26.5039 11.616 25.4586 11.9227 24.4306 12.2973C23.4279 12.6693 22.4279 13.0493 21.4292 13.4307C20.5266 13.776 19.6292 13.776 18.7279 13.4373C17.7492 13.0707 16.7719 12.7013 15.7972 12.328C13.9452 11.6147 12.0559 11.428 10.1132 11.8853C6.88391 12.6413 4.42924 14.4747 2.68924 17.2733C1.30257 19.5 0.699908 21.9707 0.546575 24.5653C0.415908 26.7293 0.629242 28.864 1.07457 30.9813C2.10791 35.9053 4.24791 40.3013 7.43591 44.1893C8.10924 45.008 8.82924 45.7813 9.68657 46.416C10.3772 46.9267 11.1212 47.3227 11.9719 47.4813C12.9466 47.6653 13.9039 47.54 14.8266 47.2307C15.3815 47.0438 15.9241 46.8214 16.4666 46.5989C16.7023 46.5023 16.9379 46.4057 17.1746 46.312C19.3412 45.456 21.5319 45.3507 23.7346 46.1507C24.1742 46.3104 24.6053 46.4948 25.0365 46.6792C25.271 46.7794 25.5054 46.8797 25.7412 46.976C26.6652 47.352 27.6239 47.5333 28.6226 47.5013C29.9519 47.4547 31.1012 46.944 32.0999 46.0987C32.6052 45.6733 33.0946 45.2147 33.5146 44.708C35.6906 42.1053 37.4839 39.2653 38.6652 36.0667C38.7531 35.8319 38.8338 35.5946 38.9128 35.3626Z" fill="#FF0043"/>
</svg>
