<svg width="48" height="46" viewBox="0 0 48 46" fill="none" xmlns="http://www.w3.org/2000/svg">
<path d="M23.7932 0.396545C10.6736 0.396545 6.39478e-05 10.0026 6.39478e-05 21.8103C6.39478e-05 25.9376 1.30551 29.9357 3.78158 33.3928C3.31286 38.5773 2.05658 42.4263 0.232443 44.2496C-0.0086602 44.4907 -0.068936 44.8595 0.0833398 45.1641C0.218167 45.4361 0.495754 45.6034 0.793167 45.6034C0.82965 45.6034 0.866133 45.6011 0.903409 45.5955C1.22462 45.5503 8.68613 44.4764 14.0832 41.3611C17.1478 42.5976 20.4122 43.2241 23.7932 43.2241C36.9127 43.2241 47.5863 33.6181 47.5863 21.8103C47.5863 10.0026 36.9127 0.396545 23.7932 0.396545Z" fill="#FF0043"/>
<path d="M12.6897 24.9828C10.9402 24.9828 9.51733 23.5599 9.51733 21.8104C9.51733 20.0608 10.9402 18.6379 12.6897 18.6379C14.4393 18.6379 15.8622 20.0608 15.8622 21.8104C15.8622 23.5599 14.4393 24.9828 12.6897 24.9828Z" fill="white"/>
<path d="M23.7933 24.9828C22.0437 24.9828 20.6208 23.5599 20.6208 21.8104C20.6208 20.0608 22.0437 18.6379 23.7933 18.6379C25.5428 18.6379 26.9657 20.0608 26.9657 21.8104C26.9657 23.5599 25.5428 24.9828 23.7933 24.9828Z" fill="white"/>
<path d="M34.8965 24.9828C33.1469 24.9828 31.7241 23.5599 31.7241 21.8104C31.7241 20.0608 33.1469 18.6379 34.8965 18.6379C36.6461 18.6379 38.0689 20.0608 38.0689 21.8104C38.0689 23.5599 36.6461 24.9828 34.8965 24.9828Z" fill="white"/>
</svg>
