<svg width="42" height="48" viewBox="0 0 42 48" fill="none" xmlns="http://www.w3.org/2000/svg">
<path d="M41.2087 6.03033L21.2477 0.0420259C21.0609 -0.0139273 20.8617 -0.0139273 20.6748 0.0420259L0.713829 6.03033C0.291092 6.15655 0.00131427 6.54532 0.0012207 6.98649V28.9436C0.0012207 37.7684 13.4589 45.6191 20.6649 47.8627C20.8598 47.9239 21.0688 47.9239 21.2637 47.8627C28.4617 45.619 41.9193 37.7683 41.9193 28.9436V6.9864C41.9194 6.54579 41.6306 6.15721 41.2087 6.03033Z" fill="#FF0043"/>
<path d="M18.9641 31.9377C18.6992 31.9382 18.4449 31.8334 18.2574 31.6462L10.2731 23.6618C9.89018 23.2654 9.90113 22.6335 10.2976 22.2506C10.6844 21.8771 11.2975 21.8771 11.6842 22.2506L18.9641 29.5283L32.2301 16.2623C32.6131 15.8658 33.2448 15.8548 33.6414 16.2378C34.0378 16.6207 34.0488 17.2525 33.6659 17.649C33.6579 17.6574 33.6497 17.6655 33.6414 17.6735L19.6687 31.6462C19.4817 31.8328 19.2283 31.9376 18.9641 31.9377Z" fill="#FAFAFA"/>
</svg>
